<svg xmlns="http://www.w3.org/2000/svg" version="1.1" xmlns:xlink="http://www.w3.org/1999/xlink" xmlns:svgjs="http://svgjs.dev/svgjs" width="1000" height="1000" viewBox="0 0 1000 1000"><rect width="1000" height="1000" fill="#ffffff"></rect><g transform="matrix(0.7,0,0,0.7,149.57575757575756,472.41788013267774)"><svg viewBox="0 0 396 31" data-background-color="#ffffff" preserveAspectRatio="xMidYMid meet" height="78" width="1000" xmlns="http://www.w3.org/2000/svg" xmlns:xlink="http://www.w3.org/1999/xlink"><g id="tight-bounds" transform="matrix(1,0,0,1,0.2400000000000091,0.16017794664816165)"><svg viewBox="0 0 395.52 30.67955282604066" height="30.67955282604066" width="395.52"><g><svg viewBox="0 0 435.8105401767443 33.80479492692593" height="30.67955282604066" width="395.52"><g transform="matrix(1,0,0,1,40.290540176744315,4.672008560812484)"><svg viewBox="0 0 395.52 24.46077780530096" height="24.46077780530096" width="395.52"><g><svg viewBox="0 0 395.52 24.46077780530096" height="24.46077780530096" width="395.52"><g><svg viewBox="0 0 395.52 24.46077780530096" height="24.46077780530096" width="395.52"><g transform="matrix(1,0,0,1,0,0)"><svg width="395.52" viewBox="3.6500000953674316 -37.150001525878906 605.5 37.45000076293945" height="24.46077780530096" data-palette-color="#3d3839"><path d="M18.55 0L3.65 0 3.65-36.85 18.55-36.85Q22-36.85 24.35-35.6 26.7-34.35 28.15-31.98 29.6-29.6 30.25-26.18 30.9-22.75 30.9-18.4L30.9-18.4Q30.9-12.5 29.53-8.4 28.15-4.3 25.4-2.15 22.65 0 18.55 0L18.55 0ZM8.7-32.35L8.7-4.5 18.1-4.5Q20.85-4.5 22.55-6.18 24.25-7.85 25.05-10.98 25.85-14.1 25.85-18.4L25.85-18.4Q25.85-22.35 25.4-25.03 24.95-27.7 24-29.33 23.05-30.95 21.58-31.65 20.1-32.35 18.1-32.35L18.1-32.35 8.7-32.35ZM45.5 0.2L45.5 0.2Q44.25 0.2 42.85-0.03 41.45-0.25 40.17-0.98 38.9-1.7 38.1-3.2 37.3-4.7 37.3-7.25L37.3-7.25 37.3-29.15Q37.3-31.35 37.97-32.85 38.65-34.35 39.75-35.23 40.85-36.1 42.22-36.48 43.6-36.85 44.95-36.85L44.95-36.85Q48.2-36.8 50.92-36.73 53.65-36.65 56-36.55 58.35-36.45 60.5-36.35L60.5-36.35 60.5-32.2 46.3-32.2Q44.45-32.2 43.4-31.25 42.35-30.3 42.35-28.25L42.35-28.25 42.35-20.6 58.25-20.3 58.25-16.4 42.35-16.05 42.35-8.5Q42.35-6.8 42.92-5.95 43.5-5.1 44.42-4.8 45.35-4.5 46.4-4.5L46.4-4.5 60.5-4.5 60.5-0.35Q58.2-0.2 55.65-0.08 53.1 0.05 50.52 0.13 47.95 0.2 45.5 0.2ZM88.55 0L74.59 0Q72.25 0 70.47-0.73 68.7-1.45 67.75-3.18 66.8-4.9 66.8-7.8L66.8-7.8 66.8-36.85 71.84-36.85 71.84-8.55Q71.84-6.95 72.4-6.08 72.95-5.2 73.84-4.9 74.75-4.6 75.8-4.6L75.8-4.6 88.55-4.6 88.55 0ZM104.89 0L99.84 0 99.84-32.35 88.84-32.35 88.84-36.85 115.89-36.85 115.89-32.35 104.89-32.35 104.89 0ZM125.39 0L120.34 0 120.34-36.85 135.09-36.85Q136.99-36.85 138.77-36.4 140.54-35.95 141.94-34.75 143.34-33.55 144.14-31.38 144.94-29.2 144.94-25.7L144.94-25.7Q144.94-22.85 144.34-20.95 143.74-19.05 142.77-17.93 141.79-16.8 140.62-16.23 139.44-15.65 138.29-15.35L138.29-15.35 145.64 0 140.54 0 133.74-14.65Q132.99-14.65 131.92-14.68 130.84-14.7 129.67-14.7 128.49-14.7 127.37-14.75 126.24-14.8 125.39-14.8L125.39-14.8 125.39 0ZM125.39-32.35L125.39-18.7 134.29-18.7Q135.49-18.7 136.49-18.98 137.49-19.25 138.27-20.03 139.04-20.8 139.49-22.18 139.94-23.55 139.94-25.7L139.94-25.7Q139.94-27.8 139.49-29.1 139.04-30.4 138.24-31.1 137.44-31.8 136.44-32.08 135.44-32.35 134.29-32.35L134.29-32.35 125.39-32.35ZM164.64 0.3L164.64 0.3Q161.04 0.3 158.31-0.4 155.59-1.1 153.76-3 151.94-4.9 151.04-8.6 150.14-12.3 150.14-18.3L150.14-18.3Q150.14-24.3 151.04-28.03 151.94-31.75 153.79-33.73 155.64-35.7 158.34-36.43 161.04-37.15 164.64-37.15L164.64-37.15Q168.34-37.15 171.06-36.43 173.79-35.7 175.59-33.73 177.39-31.75 178.29-28.03 179.19-24.3 179.19-18.3L179.19-18.3Q179.19-12.3 178.29-8.6 177.39-4.9 175.56-3 173.74-1.1 171.01-0.4 168.29 0.3 164.64 0.3ZM164.64-4.2L164.64-4.2Q167.24-4.2 169.06-4.75 170.89-5.3 172.01-6.78 173.14-8.25 173.64-11.03 174.14-13.8 174.14-18.3L174.14-18.3Q174.14-23.05 173.61-25.9 173.09-28.75 171.99-30.2 170.89-31.65 169.06-32.15 167.24-32.65 164.64-32.65L164.64-32.65Q162.19-32.65 160.39-32.15 158.59-31.65 157.44-30.2 156.29-28.75 155.71-25.9 155.14-23.05 155.14-18.3L155.14-18.3Q155.14-13.8 155.61-11.03 156.09-8.25 157.21-6.78 158.34-5.3 160.16-4.75 161.99-4.2 164.64-4.2ZM191.14 0L186.09 0 186.09-36.85 190.19-36.85 208.24-8.6 208.24-36.85 213.24-36.85 213.24 0 209.19 0 191.14-28.25 191.14 0ZM225.03 0L219.98 0 219.98-36.85 225.03-36.85 225.03 0ZM244.53 0.3L244.53 0.3Q241.23 0.3 238.78-0.45 236.33-1.2 234.68-3.18 233.03-5.15 232.23-8.88 231.43-12.6 231.43-18.55L231.43-18.55Q231.43-24.15 232.26-27.8 233.08-31.45 234.76-33.5 236.43-35.55 238.93-36.35 241.43-37.15 244.73-37.15L244.73-37.15Q246.58-37.15 248.56-36.95 250.53-36.75 252.36-36.43 254.18-36.1 255.63-35.7L255.63-35.7 255.63-31.9Q254.73-32.05 253.18-32.23 251.63-32.4 249.68-32.52 247.73-32.65 245.63-32.65L245.63-32.65Q243.13-32.65 241.38-32.08 239.63-31.5 238.53-29.98 237.43-28.45 236.93-25.68 236.43-22.9 236.43-18.5L236.43-18.5Q236.43-14.05 236.91-11.23 237.38-8.4 238.43-6.88 239.48-5.35 241.23-4.78 242.98-4.2 245.58-4.2L245.58-4.2Q249.33-4.2 251.73-4.4 254.13-4.6 255.63-4.8L255.63-4.8 255.63-0.95Q254.13-0.6 252.33-0.3 250.53 0 248.56 0.15 246.58 0.3 244.53 0.3ZM272.08 0.3L272.08 0.3Q270.88 0.3 269.35 0.23 267.83 0.15 266.25 0 264.68-0.15 263.25-0.3 261.83-0.45 260.83-0.7L260.83-0.7 260.83-4.6Q262.13-4.5 263.95-4.4 265.78-4.3 267.85-4.25 269.93-4.2 271.88-4.2L271.88-4.2Q274.03-4.2 275.7-4.6 277.38-5 278.35-6.1 279.33-7.2 279.33-9.2L279.33-9.2 279.33-11.35Q279.33-13.6 278.1-14.8 276.88-16 274.38-16L274.38-16 270.63-16Q265.83-16 263.2-18.1 260.58-20.2 260.58-25.3L260.58-25.3 260.58-27.3Q260.58-32.6 263.45-34.88 266.33-37.15 271.63-37.15L271.63-37.15Q273.38-37.15 275.38-36.98 277.38-36.8 279.28-36.55 281.18-36.3 282.43-36.05L282.43-36.05 282.43-32.15Q280.18-32.3 277.4-32.48 274.63-32.65 272.18-32.65L272.18-32.65Q270.08-32.65 268.55-32.18 267.03-31.7 266.2-30.5 265.38-29.3 265.38-27.1L265.38-27.1 265.38-25.6Q265.38-22.9 266.83-21.85 268.28-20.8 270.88-20.8L270.88-20.8 274.93-20.8Q278.08-20.8 280.1-19.65 282.13-18.5 283.13-16.5 284.13-14.5 284.13-11.95L284.13-11.95 284.13-9.35Q284.13-5.45 282.53-3.35 280.93-1.25 278.23-0.48 275.53 0.3 272.08 0.3ZM306.82 0L301.62 0 313.92-36.85 320.32-36.85 332.62 0 327.37 0 324.12-9.65 310.02-9.65 306.82 0ZM317.07-32.45L311.22-14.2 322.87-14.2 317.07-32.45ZM349.52 0.3L349.52 0.3Q346.47 0.3 343.92-0.25 341.37-0.8 339.52-2.13 337.67-3.45 336.7-5.75 335.72-8.05 335.72-11.55L335.72-11.55 335.72-36.85 340.77-36.85 340.77-11.6Q340.77-8.75 341.8-7.18 342.82-5.6 344.8-4.93 346.77-4.25 349.52-4.25L349.52-4.25Q352.32-4.25 354.3-4.93 356.27-5.6 357.3-7.18 358.32-8.75 358.32-11.6L358.32-11.6 358.32-36.85 363.37-36.85 363.37-11.55Q363.37-8.05 362.37-5.75 361.37-3.45 359.55-2.13 357.72-0.8 355.17-0.25 352.62 0.3 349.52 0.3ZM383.37 0L378.32 0 378.32-32.35 367.32-32.35 367.32-36.85 394.37-36.85 394.37-32.35 383.37-32.35 383.37 0ZM412.17 0.3L412.17 0.3Q408.56 0.3 405.84-0.4 403.12-1.1 401.29-3 399.47-4.9 398.56-8.6 397.67-12.3 397.67-18.3L397.67-18.3Q397.67-24.3 398.56-28.03 399.47-31.75 401.31-33.73 403.17-35.7 405.87-36.43 408.56-37.15 412.17-37.15L412.17-37.15Q415.87-37.15 418.59-36.43 421.31-35.7 423.12-33.73 424.92-31.75 425.81-28.03 426.72-24.3 426.72-18.3L426.72-18.3Q426.72-12.3 425.81-8.6 424.92-4.9 423.09-3 421.27-1.1 418.54-0.4 415.81 0.3 412.17 0.3ZM412.17-4.2L412.17-4.2Q414.77-4.2 416.59-4.75 418.42-5.3 419.54-6.78 420.67-8.25 421.17-11.03 421.67-13.8 421.67-18.3L421.67-18.3Q421.67-23.05 421.14-25.9 420.62-28.75 419.52-30.2 418.42-31.65 416.59-32.15 414.77-32.65 412.17-32.65L412.17-32.65Q409.72-32.65 407.92-32.15 406.12-31.65 404.97-30.2 403.81-28.75 403.24-25.9 402.67-23.05 402.67-18.3L402.67-18.3Q402.67-13.8 403.14-11.03 403.62-8.25 404.74-6.78 405.87-5.3 407.69-4.75 409.52-4.2 412.17-4.2ZM435.91 0L431.06 0 435.26-36.85 440.26-36.85 449.66-6.1 458.91-36.85 463.96-36.85 468.26 0 463.41 0 459.81-30.7 460.66-30.6 451.96 0 447.31 0 438.46-30.6 439.36-30.65 435.91 0ZM477.56 0L472.36 0 484.66-36.85 491.06-36.85 503.36 0 498.11 0 494.86-9.65 480.76-9.65 477.56 0ZM487.81-32.45L481.96-14.2 493.61-14.2 487.81-32.45ZM519.16 0L514.11 0 514.11-32.35 503.11-32.35 503.11-36.85 530.16-36.85 530.16-32.35 519.16-32.35 519.16 0ZM539.65 0L534.6 0 534.6-36.85 539.65-36.85 539.65 0ZM560.55 0.3L560.55 0.3Q556.95 0.3 554.23-0.4 551.5-1.1 549.68-3 547.85-4.9 546.95-8.6 546.05-12.3 546.05-18.3L546.05-18.3Q546.05-24.3 546.95-28.03 547.85-31.75 549.7-33.73 551.55-35.7 554.25-36.43 556.95-37.15 560.55-37.15L560.55-37.15Q564.25-37.15 566.98-36.43 569.7-35.7 571.5-33.73 573.3-31.75 574.2-28.03 575.1-24.3 575.1-18.3L575.1-18.3Q575.1-12.3 574.2-8.6 573.3-4.9 571.48-3 569.65-1.1 566.93-0.4 564.2 0.3 560.55 0.3ZM560.55-4.2L560.55-4.2Q563.15-4.2 564.98-4.75 566.8-5.3 567.93-6.78 569.05-8.25 569.55-11.03 570.05-13.8 570.05-18.3L570.05-18.3Q570.05-23.05 569.53-25.9 569-28.75 567.9-30.2 566.8-31.65 564.98-32.15 563.15-32.65 560.55-32.65L560.55-32.65Q558.1-32.65 556.3-32.15 554.5-31.65 553.35-30.2 552.2-28.75 551.63-25.9 551.05-23.05 551.05-18.3L551.05-18.3Q551.05-13.8 551.53-11.03 552-8.25 553.13-6.78 554.25-5.3 556.08-4.75 557.9-4.2 560.55-4.2ZM587.05 0L582 0 582-36.85 586.1-36.85 604.15-8.6 604.15-36.85 609.15-36.85 609.15 0 605.1 0 587.05-28.25 587.05 0Z" opacity="1" transform="matrix(1,0,0,1,0,0)" fill="#3d3839" class="undefined-text-0" data-fill-palette-color="primary" id="text-0"></path></svg></g></svg></g></svg></g></svg></g><g><svg viewBox="0 0 34.515937595580084 33.80479492692593" height="33.80479492692593" width="34.515937595580084"><g><svg xmlns="http://www.w3.org/2000/svg" xmlns:xlink="http://www.w3.org/1999/xlink" version="1.1" x="0" y="0" viewBox="1.4343382120132446 1.940471887588501 49.131324768066406 48.119056701660156" enable-background="new 0 0 52 52" xml:space="preserve" height="33.80479492692593" width="34.515937595580084" class="icon-icon-0" data-fill-palette-color="accent" id="icon-0"><g fill="#ffc604" data-fill-palette-color="accent"><g fill="#ffc604" data-fill-palette-color="accent"><path d="M29.901 4.56c0.963-0.001 2.785-0.265 3.708-0.004 3.24 0.919 0.562 1.159 2.644 2.148 1.036 0.493 1.969 0.416 3.149 0.435 1.451 0.023 7.473-0.859 8.571 0.13 0.544 0.491-0.199 7.927-0.201 8.798-0.006 2.101 0.342 2.151-1.501 2.73-1.126 0.354-3.502 0.039-4.685 0.046-2.863 0.016-5.727 0.01-8.59-0.017-1.156-0.011-2.425 0.351-3.144-0.781-0.386-0.606-0.075-3.846-0.081-4.572-0.009-1.138-0.683-8.594 0.04-9.061 1.348-0.869 0.096-3.034-1.262-2.158-2.335 1.506-1.282 5.783-1.286 8.17-0.004 2.54 0 5.083 0.089 7.621 0.028 0.814-0.14 2.13 0.543 2.788 1.687 1.624 7.604 0.515 9.787 0.518 2.603 0.003 5.206-0.011 7.808-0.044 1.062-0.013 2.822 0.282 3.757-0.415 2.14-1.599 1.03-6.75 1.036-8.908 0.006-2.169 0.977-5.98-1.48-7.106-1.266-0.58-3.773-0.222-5.114-0.242-0.952-0.014-1.905-0.019-2.858-0.013-2.625 0.016-2.171 0.321-4.176-1.516-1.839-1.684-4.296-1.05-6.754-1.047C28.293 2.061 28.29 4.561 29.901 4.56L29.901 4.56z" fill="#ffc604" data-fill-palette-color="accent"></path></g><g fill="#ffc604" data-fill-palette-color="accent"><path d="M3.819 4.731c1.896-0.008 3.412-0.223 5.171 0.879 0.404 0.253 0.683 0.8 1.159 1.017 1.343 0.613 2.463 0.688 3.943 0.73 2.672 0.076 7.165-0.948 7.925 2.282 0.419 1.78-0.01 6.024-0.462 7.834-0.389 1.557 0.106 1.253-1.829 1.164-1.268-0.058-2.548 0.001-3.818 0.002-2.868 0.001-6.363 0.542-9.164 0.004-1.584-0.304-1.952 0.103-2.44-1.731-0.307-1.152-0.056-2.656-0.082-3.87C4.2 12.026 3.447 5.17 4.238 4.786 5.684 4.082 4.418 1.925 2.976 2.627c-2.264 1.102-1.378 4.545-1.336 6.546 0.054 2.58 0.109 5.159 0.164 7.739 0.02 0.962-0.279 2.7 0.427 3.539 1.584 1.882 6.883 0.691 9.095 0.69 2.291-0.001 4.582-0.002 6.873-0.003 1.244-0.001 3.558 0.473 4.768-0.186 1.902-1.035 1.07-4.407 1.174-6.113 0.139-2.283 1.556-7.253-0.427-9.079-2.44-2.247-7.817-0.179-10.707-0.901-1.611-0.403-2.411-1.852-3.793-2.476-1.455-0.658-3.865-0.158-5.395-0.152C2.21 2.237 2.207 4.737 3.819 4.731L3.819 4.731z" fill="#ffc604" data-fill-palette-color="accent"></path></g><g fill="#ffc604" data-fill-palette-color="accent"><path d="M28.578 36.758c0.161 0.624 0.487 1.499 0.365 2.144-0.133 0.707-1.023 1.604-1.617 1.969-1.435 0.883-3.156-0.178-4.034-1.473-0.568-0.837-0.357-2.068 0.169-2.905 0.514-0.817 1.182-0.956 2.094-0.982 0.805-0.023 1.321-0.03 1.965 0.497 0.466 0.382 0.765 0.783 1.336 1.035 1.459 0.643 2.732-1.51 1.262-2.159-1.23-0.542-1.624-1.68-3.12-1.845-1.308-0.144-2.832-0.145-4.006 0.518-2.383 1.346-3.47 5.163-1.689 7.373 1.703 2.113 4.198 3.629 6.831 2.34 1.192-0.584 2.23-1.656 2.878-2.817 0.747-1.337 0.336-2.964-0.023-4.36C30.588 34.536 28.176 35.196 28.578 36.758L28.578 36.758z" fill="#ffc604" data-fill-palette-color="accent"></path></g><g fill="#ffc604" data-fill-palette-color="accent"><path d="M24.526 28.222c3.071 0.007 1.191 3.02 4.558 3.655 0.51 0.096 0.805 0.195 1.34 0.116 0.227-0.033 0.401-0.398 0.6-0.407 0.462-0.181 0.925-0.363 1.387-0.544 0.586 0.564 1.171 1.128 1.757 1.692 0-0.589 0-1.179 0-1.768-2.164 2.15-2.459 2.305-1.224 5.38 0.22 0.548 0.603 0.881 1.206 0.918 1.234 0.075 2.441 0.104 3.677 0.088-0.36-0.627-0.72-1.254-1.079-1.881-0.308 0.562-1.049 3.508-1.248 3.662 0.644-0.497-2.158 0.117-1.644-0.1-1.256 0.528-1.488 2.078-1.94 3.209-0.202 0.504 0.135 1.156 0.575 1.411 0.903 0.524 1.169 1.468-0.096 1.8-0.38 0.1-1.453-0.683-1.586-0.714-1.131-0.269-2.086-0.189-3.242-0.023-0.649 0.093-1.062 0.958-0.873 1.538 0.134 0.772 0.268 1.545 0.401 2.317 0.417-0.417 0.833-0.833 1.25-1.25-0.924 0.021-2.271 0.36-3.079-0.11-0.859-0.5-0.074-0.505-0.606-0.984-0.787-0.708-0.849-0.966-2.046-1.542-0.512-0.247-1.093-0.214-1.515 0.195-0.84 0.816-2.245 1.831-2.331-0.249-0.013-0.309 0.827-0.998 0.975-1.397 0.33-0.887 0.25-2.502-0.368-3.238-0.829-0.987-3.308-0.208-2.721-1.891 0.397-1.137 1.822-0.959 2.579-1.908 0.817-1.023 0.674-1.953 0.507-3.101-0.061-0.419-2.018-1.567-0.437-2.044-0.283 0.085 1.849 1.204 1.672 1.147 3.807 1.225 4.307-1.833 4.299-4.641-0.005-1.608-2.505-1.611-2.5 0 0.009 2.918-1.715 0.861-3.096 0.959-1.2 0.085-1.997 0.354-2.783 1.364-0.656 0.843-0.775 1.486-0.791 2.557-0.008 0.534 1.096 0.922 0.98 1.368-0.148 0.566-1.542 0.957-2.073 1.079-0.402 0.093-0.784 0.467-0.873 0.873-0.372 1.701-0.182 4.27 0.995 5.633 0.689 0.799 1.436-0.07 1.679 1.007 0.178 0.79-0.835 1.041-0.902 1.812-0.134 1.558 1.406 3.555 2.738 4.239 1.932 0.992 2.828-0.449 4.219-1.801-0.505 0.065-1.01 0.13-1.515 0.196 2.747 1.325-0.312-0.484 0.891 1.374 0.247 0.381 0.327 0.875 0.67 1.205 1.161 1.119 4.061 0.429 5.432 0.398 0.666-0.015 1.262-0.561 1.25-1.25-0.029-1.609 0.009-1.452-0.49-2.982-0.291 0.513-0.582 1.025-0.873 1.538 3.233-0.466 3.839 3.1 6.357 0.056 1.986-2.4 1.754-4.184-0.837-5.688 0.191 0.471 0.383 0.941 0.575 1.411 0.644-1.61 2.108-1.131 3.046-2.123 0.976-1.033 0.84-2.787 1.534-4.05 0.448-0.816-0.109-1.894-1.08-1.881-1.236 0.016-2.443-0.013-3.677-0.088 0.402 0.306 0.804 0.612 1.205 0.918-0.742-1.847-0.686-1.69 0.581-2.948 0.472-0.469 0.486-1.3 0-1.768-0.799-0.77-2.212-2.804-3.459-3.022-1.271-0.222-1.894 1.345-3.084 1.039-1.097-0.282 0.12-1.546-0.824-2.654-0.88-1.032-2.929-0.604-4.043-0.607C22.917 25.719 22.915 28.219 24.526 28.222L24.526 28.222z" fill="#ffc604" data-fill-palette-color="accent"></path></g><g fill="#ffc604" data-fill-palette-color="accent"><path d="M42.952 19.766c-3.861 2.765-7.413 5.882-10.625 9.382-1.086 1.184 0.677 2.956 1.767 1.768 3.066-3.341 6.431-6.35 10.119-8.991C45.51 20.997 44.263 18.827 42.952 19.766L42.952 19.766z" fill="#ffc604" data-fill-palette-color="accent"></path></g><g fill="#ffc604" data-fill-palette-color="accent"><path d="M7.391 21.824c1.415 1.594 2.854 3.169 4.611 4.396 1.613 1.127 3.568 1.885 4.737 3.542 0.921 1.304 3.089 0.057 2.159-1.262-1.116-1.581-2.596-2.551-4.228-3.545-2.166-1.32-3.837-3.013-5.511-4.899C8.088 18.851 6.326 20.624 7.391 21.824L7.391 21.824z" fill="#ffc604" data-fill-palette-color="accent"></path></g></g></svg></g></svg></g></svg></g><defs></defs></svg><rect width="395.52" height="30.67955282604066" fill="none" stroke="none" visibility="hidden"></rect></g></svg></g></svg>